<?xml version="1.0" encoding="UTF-8"?>
<svg id="Livello_1" data-name="Livello 1" xmlns="http://www.w3.org/2000/svg" viewBox="0 0 393.29 61.63">
  <defs>
    <style>
      .cls-1 {
        fill: #f648ca;
      }

      .cls-2 {
        fill: #cbd5e1;
      }
    </style>
  </defs>
  <g>
    <path class="cls-2" d="m52.68,31.53c-2.31,3.14-5.38,5.64-9.21,7.48-3.83,1.85-8.23,2.77-13.19,2.77h-7.61l-3.46,19.46H0L10.81,0h26.82c6.51,0,11.47,1.47,14.88,4.41,3.4,2.94,5.1,6.98,5.1,12.11,0,1.27-.14,2.77-.43,4.5-.69,3.86-2.19,7.37-4.5,10.51Zm-14.97-10.51c.12-.69.17-1.18.17-1.47,0-2.77-1.7-4.15-5.1-4.15h-5.45l-1.99,11.25h5.45c3.92,0,6.23-1.88,6.92-5.62Z"/>
    <path class="cls-2" d="m77.94,46.71h18.51l-2.59,14.53h-37.71L66.95,0h19.2l-8.22,46.71Z"/>
    <path class="cls-2" d="m140.82,51.99h-20.41l-4.67,9.26h-20.15L128.8,0h22.15l11.5,61.24h-20.24l-1.39-9.26Zm-2.07-14.44l-2.51-17.04-8.56,17.04h11.07Z"/>
    <path class="cls-2" d="m226.96,0l-29.5,42.64-3.29,18.6h-19.2l3.28-18.6L163.81,0h21.97l5.97,21.71L205.33,0h21.63Z"/>
    <path class="cls-2" d="m313.11,15.23l-1.3,7.61h19.03l-2.59,14.44h-19.03l-1.56,8.65h21.63l-2.68,15.31h-40.83L296.59,0h40.83l-2.68,15.23h-21.63Z"/>
    <path class="cls-2" d="m388.19,4.41c3.4,2.94,5.1,6.86,5.1,11.76,0,1.44-.12,2.74-.35,3.89-.75,4.15-2.54,7.8-5.36,10.94-2.83,3.14-6.49,5.41-10.98,6.79l9.17,23.44h-21.11l-7.7-21.97-3.89,21.97h-19.2L344.68,0h28.54c6.57,0,11.56,1.47,14.97,4.41Zm-28.98,22.05h7.61c1.85,0,3.3-.42,4.37-1.25,1.07-.83,1.77-2.15,2.12-3.94.06-.29.08-.66.08-1.13,0-1.27-.4-2.26-1.21-2.98s-1.99-1.08-3.54-1.08h-7.61l-1.82,10.38Z"/>
  </g>
  <g>
    <path class="cls-1" d="m250.59.37l-3.24,17.99c-8.09.48-15.85,4.74-21.18,11.02L231.38.37h19.21Z"/>
    <path class="cls-1" d="m282.46,31.38l-5.44,30.25h-19.14l3.46-19.23c8.06-.49,15.8-4.76,21.11-11.02Z"/>
    <path class="cls-1" d="m288.04.37l-2.97,16.52c-2.13,11.84-13.45,21.44-25.3,21.44h-7.62c-2.6,0-4.96.98-6.75,2.59-.04.03-.07.06-.11.1-1.35,1.25-2.36,2.86-2.86,4.67-.17.6-.28,1.22-.33,1.85l-2.54,14.1h-19.2l3.19-17.76c2.13-11.84,13.46-21.44,25.3-21.44h7.66c4.52,0,8.34-2.96,9.62-7.04,0,0,0,0,0-.01.09-.29.17-.6.24-.9,0-.02,0-.04.01-.06.04-.18.07-.37.1-.56,0-.01,0-.03,0-.04l.16-.92h0s2.25-12.53,2.25-12.53h19.14Z"/>
    <path class="cls-1" d="m242.43,45.68l-.33,1.85c.05-.64.16-1.26.33-1.85Z"/>
  </g>
</svg>